<svg xmlns="http://www.w3.org/2000/svg" viewBox="0 0 512 512"><path opacity=".6" d="M96 191.1H32c-17.7 0-32 14.3-32 31.1v223.1a31.2 31.2 0 0 0 32 31.1h64c17.7 0 32-14.3 32-31.1V223.1c0-16.8-14.3-32-32-32zM512 227a67 67 0 0 0-67-66.9h-99.9c9.5-25 14.8-46.6 14.8-59.3a68.6 68.6 0 0 0-70-68.8c-46.6 0-59.4 32.4-69.6 58.5C188.7 171 160 156.9 160 184a24 24 0 0 0 39 18.7C275.8 141.4 257 80 289.9 80a21 21 0 0 1 22.1 20.8c0 7.4-7.6 39.5-25.5 71.6-2 3.6-3.1 7.7-3.1 11.7 0 13.9 11.4 23.1 24 23.1H445c10.5.9 19 9.4 19 19.8a19 19 0 0 1-17.7 18.7 24 24 0 0 0-22.4 23.9c0 15.5 11.4 16 11.4 28.9 0 25.4-35 12.3-35 42.1 0 11.2 6.4 13 6.4 22.2 0 22.7-29.8 13.8-29.8 40.6 0 4.5 1.1 6 1.1 9.5a19 19 0 0 1-19 19h-52.5c-25.6 0-51-8.5-71.5-23.8l-36.7-27.5a24 24 0 0 0-28.8 38.3l36.7 27.5A167.7 167.7 0 0 0 306.6 480h52.5a67 67 0 0 0 66.8-62.2 66.3 66.3 0 0 0 28.2-63.9 67 67 0 0 0 27.4-70.9 68.2 68.2 0 0 0 30.5-56z"/></svg>